<?xml version="1.0" encoding="utf-8"?>
<!-- Generator: Adobe Illustrator 25.0.1, SVG Export Plug-In . SVG Version: 6.00 Build 0)  -->
<svg version="1.0" id="katman_1" xmlns="http://www.w3.org/2000/svg" xmlns:xlink="http://www.w3.org/1999/xlink" x="0px" y="0px"
	 viewBox="0 0 600 400" style="enable-background:new 0 0 600 400;" xml:space="preserve">
<style type="text/css">
	.st0{fill:#38A2FF;}
</style>
<desc>Created with Sketch.</desc>
<g id="Page-1">
	<g id="Artboard-Copy" transform="translate(-326.000000, -32.000000)">
		<path id="Fill-1-Copy" class="st0" d="M512,218.5c-2.4,2.4-5.4,4-8.6,4.6c4.4,11.8,1.5,25.3-7.5,34.3c-6.2,6.2-14.6,9.5-23.1,9.5
			c-3.8,0-7.6-0.7-11.3-2c-0.6,3.2-2.1,6.2-4.6,8.6c-6.5,6.5-17.1,6.5-23.7,0c-6.5-6.5-6.5-17.1,0-23.7c2.4-2.4,5.4-4,8.6-4.6
			c-4.5-11.9-1.6-25.5,7.4-34.5c9-9,22.6-11.9,34.5-7.4c0.6-3.1,2.1-6.1,4.6-8.5c6.5-6.5,17.1-6.5,23.7,0
			C518.5,201.4,518.5,212,512,218.5z M472.6,160.3c-40.8,0-73.9,33.1-73.9,73.9c0,40.8,33.1,73.9,73.9,73.9
			c40.8,0,73.9-33.1,73.9-73.9C546.5,193.4,513.4,160.3,472.6,160.3z M481.4,242.9c-4.8,4.8-12.5,4.8-17.3,0
			c-4.8-4.8-4.8-12.5,0-17.3c4.8-4.8,12.5-4.8,17.3,0C486.1,230.4,486.1,238.1,481.4,242.9z M492.3,198.8c-2.5,2.5-3.7,6.1-3.1,9.6
			c0.2,1.2,0.1,2.3-0.4,3.4c-0.7,1.4-1.8,2.4-3.2,3c-1.4,0.5-2.9,0.5-4.4-0.2c-8-3.7-17.6-2-23.8,4.2c-6.2,6.2-7.9,15.8-4.2,23.8
			c0.7,1.4,0.7,3,0.2,4.4c-0.5,1.3-1.5,2.5-2.9,3.1c-0.8,0.4-1.6,0.5-2.4,0.5c-0.4,0-0.8-0.1-1.1-0.1c-3.7-0.5-7.1,0.6-9.6,3.1
			c-2.1,2.1-3.2,4.9-3.2,7.8c0,3,1.1,5.7,3.2,7.8c4.3,4.3,11.3,4.3,15.6,0c2.5-2.5,3.7-6.1,3.1-9.6c0-0.2,0-0.4,0-0.6
			c-0.1-0.9,0.1-1.9,0.5-2.8c0.7-1.4,1.8-2.4,3.2-2.9c1.4-0.5,2.9-0.5,4.4,0.2c8,3.7,17.6,2,23.8-4.2c6.2-6.2,8-15.8,4.2-23.8
			c-0.7-1.4-0.7-3-0.2-4.3c0.5-1.4,1.5-2.6,3-3.2c1-0.5,2.1-0.6,3.1-0.5c0.2,0,0.3,0,0.5,0c3.5,0.5,6.9-0.6,9.4-3.1
			c4.3-4.3,4.3-11.3,0-15.6C503.6,194.5,496.6,194.5,492.3,198.8z M689.5,256.7c0.4,0,0.7-0.1,0.9-0.1v10.9
			c-2.4,0.5-4.3,0.7-5.7,0.7c-4.6,0-8.2-1.2-10.8-3.5c-2.6-2.3-3.9-6-3.9-11v-60.9h13v58.8c0,1.7,0.3,3,1,3.9
			c0.7,0.9,2.1,1.3,4.1,1.3C688.7,256.8,689.1,256.7,689.5,256.7z M696.7,267.6h13.1v-53.8h-13.1V267.6z M752.8,213.8h12.9v53.8H755
			l-0.9-7c-1.3,2.6-3.3,4.7-6.1,6.2c-2.8,1.5-5.9,2.2-9.3,2.2c-5.7,0-10.3-1.8-13.6-5.3c-3.3-3.5-5-8.2-5-14v-35.9H733v33
			c0,6.8,3.1,10.2,9.3,10.2c2.6,0,4.8-0.9,6.6-2.7c2.6-2.4,3.9-6.4,3.9-12.1V213.8z M853,231.3v36.3h-12.8v-33.4
			c0-3.5-0.6-6.1-1.8-7.9c-1.2-1.7-3.4-2.6-6.5-2.6c-3.4,0-6,1.5-7.8,4.4c-1.8,2.9-2.7,6.3-2.7,10.1v29.4h-12.8v-33.4
			c0-3.5-0.6-6.1-1.8-7.9c-1.2-1.7-3.4-2.6-6.5-2.6c-3.4,0-6,1.5-7.9,4.4c-1.9,2.9-2.8,6.3-2.8,10.1v29.4h-12.8v-53.8h10.8l1,7.1
			c3.4-5.7,8.6-8.5,15.3-8.5c7.4,0,12.5,2.9,15.4,8.8c3.4-5.9,8.8-8.8,16.2-8.8c5.6,0,9.9,1.7,12.9,5.1
			C851.5,221,853,225.6,853,231.3z M696.2,206.4h13.9V193h-13.9V206.4z M602.9,217.9c3.2,3.6,4.9,8.2,4.9,13.9v35.9h-12.9v-33.2
			c0-3.3-0.7-5.8-2-7.5c-1.3-1.7-3.6-2.5-6.9-2.5c-3.6,0-6.3,1.5-8.2,4.6c-1.9,3.1-2.8,6.5-2.8,10.3v28.3h-12.9v-74.7h12.9v26.6
			c1.5-2.2,3.6-3.9,6.3-5.2c2.7-1.2,5.5-1.9,8.4-1.9C595.2,212.5,599.6,214.3,602.9,217.9z M627.2,235.4c0.1-3.3,1-6.1,2.8-8.4
			c2.1-2.8,5.1-4.1,9-4.1c3.5,0,6.2,1,8.2,3.1c2.1,2.3,3.2,5.5,3.3,9.4H627.2z M639.1,212.5c-7,0-12.8,2.3-17.2,6.8
			c-5.2,5.3-7.8,12.5-7.8,21.5c0,9,2.8,16.2,8.3,21.5c4.6,4.4,10.3,6.6,17,6.6c7.8,0,13.8-2.5,18.1-7.6c2.7-3.2,4.2-6.6,4.6-9.9
			h-12.4c-0.5,1.8-1.3,3.3-2.6,4.6c-1.7,1.7-4.3,2.6-7.9,2.6c-3,0-5.6-1.1-8-3.3c-2.8-2.6-4.1-6.1-3.9-10.6h36c0-0.8,0-2,0.1-3.6
			c0.2-7.4-1.3-13.7-4.7-18.7C654.3,215.8,647.8,212.5,639.1,212.5z"/>
	</g>
</g>
</svg>
